<svg width="200" height="219" viewBox="0 0 200 219" fill="none" xmlns="http://www.w3.org/2000/svg">
<path d="M89.5522 0V39.8182H69.6517L109.453 79.6364L149.254 39.8182H129.353V0M0 19.9091V39.8182H19.9005L55.7214 115.473L41.791 139.364C40.796 142.35 39.801 145.336 39.801 149.318C39.801 160.268 48.7562 169.227 59.7015 169.227H179.104V149.318H63.6816C62.6866 149.318 61.6915 148.323 61.6915 147.327V146.332L70.6468 129.409H144.279C151.244 129.409 158.209 125.427 161.194 119.455L200 49.7727L183.085 39.8182L144.279 109.5H74.6269L32.8358 19.9091M59.7015 179.182C48.7562 179.182 39.801 188.141 39.801 199.091C39.801 210.041 48.7562 219 59.7015 219C70.6468 219 79.602 210.041 79.602 199.091C79.602 188.141 70.6468 179.182 59.7015 179.182ZM159.204 179.182C148.259 179.182 139.303 188.141 139.303 199.091C139.303 210.041 148.259 219 159.204 219C170.149 219 179.104 210.041 179.104 199.091C179.104 188.141 170.149 179.182 159.204 179.182Z" fill="white"/>
</svg>
