<svg width="229" height="300" viewBox="0 0 229 300" fill="none" xmlns="http://www.w3.org/2000/svg">
<path d="M114.5 228.571C122.092 228.571 129.373 225.561 134.741 220.203C140.109 214.845 143.125 207.578 143.125 200C143.125 184.143 130.244 171.429 114.5 171.429C106.908 171.429 99.6273 174.439 94.2591 179.797C88.8908 185.155 85.875 192.422 85.875 200C85.875 207.578 88.8908 214.845 94.2591 220.203C99.6273 225.561 106.908 228.571 114.5 228.571ZM200.375 100C207.967 100 215.248 103.01 220.616 108.368C225.984 113.727 229 120.994 229 128.571V271.429C229 279.006 225.984 286.273 220.616 291.632C215.248 296.99 207.967 300 200.375 300H28.625C21.0332 300 13.7523 296.99 8.38407 291.632C3.01584 286.273 0 279.006 0 271.429V128.571C0 112.714 12.8812 100 28.625 100H42.9375V71.4286C42.9375 52.4845 50.4771 34.3164 63.8977 20.9209C77.3182 7.52549 95.5204 0 114.5 0C123.898 0 133.203 1.84755 141.886 5.43718C150.568 9.0268 158.457 14.2882 165.102 20.9209C171.748 27.5537 177.019 35.4279 180.615 44.094C184.211 52.7602 186.063 62.0484 186.062 71.4286V100H200.375ZM114.5 28.5714C103.112 28.5714 92.1909 33.0867 84.1386 41.124C76.0863 49.1613 71.5625 60.0621 71.5625 71.4286V100H157.438V71.4286C157.438 60.0621 152.914 49.1613 144.861 41.124C136.809 33.0867 125.888 28.5714 114.5 28.5714Z" fill="#00F3FF"/>
</svg>
