<svg width="300" height="300" viewBox="0 0 300 300" fill="none" xmlns="http://www.w3.org/2000/svg">
<path d="M205.428 94.572C236.117 125.261 236.117 174.739 205.428 205.428C174.739 236.117 125.261 236.117 94.7286 205.428C64.1962 174.739 63.8831 125.261 94.7286 94.572C125.574 63.8831 174.739 63.8831 205.428 94.572ZM266.962 33.3507C266.962 33.3507 251.775 35.2296 235.021 46.0334C232.672 29.7495 224.843 13.309 211.534 0C191.962 19.4154 189.614 43.8413 194.311 61.3779C216.075 67.0146 232.985 83.9248 238.622 105.689C256.159 110.386 280.585 108.038 300 88.4655C286.848 75.3131 270.72 67.6409 254.593 65.1357C260.699 56.0543 265.553 45.5637 266.962 33.3507ZM33.0376 266.649C33.0376 266.649 48.2255 264.77 64.9791 253.967C67.3278 270.251 75.1566 286.691 88.4655 300C108.038 280.585 110.386 256.159 105.689 238.622C83.9248 232.985 67.0146 216.075 61.3779 194.311C43.8413 189.614 19.4154 191.962 0 211.534C13.1524 224.687 29.2798 232.516 45.4071 234.864C39.3006 243.946 34.4468 254.593 33.0376 266.649Z" fill="#00F3FF"/>
</svg>
