<svg width="300" height="300" viewBox="0 0 300 300" fill="none" xmlns="http://www.w3.org/2000/svg">
<path d="M240 240C223.35 240 210 253.35 210 270C210 277.956 213.161 285.587 218.787 291.213C224.413 296.839 232.044 300 240 300C247.956 300 255.587 296.839 261.213 291.213C266.839 285.587 270 277.956 270 270C270 253.35 256.5 240 240 240ZM0 0V30H30L84 143.85L63.6 180.6C61.35 184.8 60 189.75 60 195C60 202.956 63.1607 210.587 68.7868 216.213C74.4129 221.839 82.0435 225 90 225H270V195H96.3C95.3054 195 94.3516 194.605 93.6483 193.902C92.9451 193.198 92.55 192.245 92.55 191.25C92.55 190.5 92.7 189.9 93 189.45L106.5 165H218.25C229.5 165 239.4 158.7 244.5 149.55L298.2 52.5C299.25 50.1 300 47.55 300 45C300 41.0218 298.42 37.2064 295.607 34.3934C292.794 31.5804 288.978 30 285 30H63.15L49.05 0M90 240C73.35 240 60 253.35 60 270C60 277.956 63.1607 285.587 68.7868 291.213C74.4129 296.839 82.0435 300 90 300C97.9565 300 105.587 296.839 111.213 291.213C116.839 285.587 120 277.956 120 270C120 253.35 106.5 240 90 240Z" fill="#00F3FF"/>
</svg>
