<svg width="300" height="300" viewBox="0 0 300 300" fill="none" xmlns="http://www.w3.org/2000/svg">
<path d="M150 0C169.891 0 188.968 7.90176 203.033 21.967C217.098 36.0322 225 55.1088 225 75C225 94.8912 217.098 113.968 203.033 128.033C188.968 142.098 169.891 150 150 150C130.109 150 111.032 142.098 96.967 128.033C82.9018 113.968 75 94.8912 75 75C75 55.1088 82.9018 36.0322 96.967 21.967C111.032 7.90176 130.109 0 150 0ZM150 187.5C232.875 187.5 300 221.062 300 262.5V300H0V262.5C0 221.062 67.125 187.5 150 187.5Z" fill="#00F3FF"/>
</svg>
